<svg width="701" height="674" viewBox="0 0 701 674" fill="none" xmlns="http://www.w3.org/2000/svg">
<g id="undraw_online-article_aihy 1" clip-path="url(#clip0_2_2)">
<g id="telephone">
<path id="Vector" d="M294.684 140.442H291.437V51.4855C291.437 37.8307 286.013 24.7352 276.357 15.0798C266.702 5.42438 253.606 2.85198e-05 239.952 1.5259e-05H51.4856C44.7244 -1.81291e-06 38.0294 1.3317 31.7829 3.91907C25.5364 6.50644 19.8607 10.2988 15.0798 15.0797C10.2989 19.8605 6.50653 25.5362 3.91913 31.7827C1.33173 38.0292 4.99832e-07 44.7242 -1.52588e-05 51.4854V539.507C-2.58674e-05 553.161 5.42432 566.257 15.0797 575.912C24.7351 585.568 37.8306 590.992 51.4854 590.992H239.951C246.712 590.992 253.407 589.66 259.654 587.073C265.901 584.486 271.576 580.693 276.357 575.912C281.138 571.132 284.93 565.456 287.518 559.209C290.105 552.963 291.437 546.268 291.437 539.507V203.762H294.684L294.684 140.442Z" fill="#3F3D56"/>
<path id="Vector_2" d="M242.029 13.3947H217.428C218.559 16.1684 218.991 19.1777 218.685 22.1576C218.38 25.1375 217.346 27.9965 215.675 30.4827C214.004 32.969 211.747 35.0061 209.104 36.4148C206.46 37.8234 203.511 38.5604 200.515 38.5606H92.5454C89.5498 38.5604 86.6004 37.8235 83.9567 36.4148C81.313 35.0062 79.0564 32.969 77.3855 30.4828C75.7146 27.9965 74.6808 25.1375 74.3752 22.1576C74.0695 19.1777 74.5014 16.1684 75.6327 13.3947H52.6553C42.458 13.3947 32.6784 17.4455 25.4679 24.6561C18.2573 31.8666 14.2065 41.6462 14.2065 51.8434V539.149C14.2064 544.198 15.2009 549.197 17.1332 553.862C19.0654 558.527 21.8975 562.766 25.4678 566.336C29.0381 569.906 33.2767 572.738 37.9415 574.671C42.6063 576.603 47.606 577.597 52.6552 577.597H242.029C247.078 577.597 252.078 576.603 256.743 574.671C261.407 572.738 265.646 569.906 269.216 566.336C272.787 562.766 275.619 558.527 277.551 553.862C279.483 549.198 280.478 544.198 280.478 539.149V51.8435C280.478 46.7943 279.483 41.7946 277.551 37.1298C275.619 32.4649 272.787 28.2264 269.216 24.6561C265.646 21.0858 261.407 18.2537 256.743 16.3215C252.078 14.3892 247.078 13.3947 242.029 13.3947Z" fill="white"/>
</g>
<path id="Vector_3" d="M234.769 217.964H59.9155C58.7468 217.963 57.6263 217.498 56.7999 216.671C55.9735 215.845 55.5087 214.724 55.5074 213.556V110.701C55.5087 109.532 55.9735 108.412 56.7999 107.585C57.6263 106.759 58.7468 106.294 59.9155 106.293H234.769C235.937 106.294 237.058 106.759 237.884 107.585C238.711 108.412 239.175 109.532 239.177 110.701V213.556C239.175 214.724 238.711 215.845 237.884 216.671C237.058 217.498 235.937 217.963 234.769 217.964Z" fill="white"/>
<path id="Vector_4" d="M176.376 161.205C175.487 160.252 174.414 159.488 173.223 158.957C172.032 158.427 170.746 158.142 169.442 158.119C168.139 158.096 166.844 158.335 165.634 158.822C164.425 159.309 163.326 160.034 162.403 160.955L113.194 210.163C111.894 211.461 110.134 212.19 108.297 212.193C106.461 212.196 104.698 211.471 103.394 210.178L96.1059 202.905C95.2049 202.003 94.1351 201.288 92.9576 200.801C91.7802 200.313 90.5182 200.062 89.2437 200.062C87.9692 200.062 86.7072 200.313 85.5298 200.801C84.3524 201.288 83.2826 202.003 82.3816 202.905L68.2764 217.025H226.408V215.012L176.376 161.205Z" fill="#6C63FF"/>
<path id="Vector_5" d="M234.768 219.464H59.9155C58.3491 219.462 56.8474 218.839 55.7398 217.731C54.6322 216.624 54.0092 215.122 54.0074 213.556V110.701C54.0092 109.135 54.6322 107.633 55.7398 106.525C56.8474 105.418 58.3491 104.795 59.9155 104.793H234.768C236.335 104.795 237.837 105.418 238.944 106.525C240.052 107.633 240.675 109.135 240.677 110.701V213.556C240.675 215.122 240.052 216.624 238.944 217.731C237.837 218.839 236.335 219.462 234.768 219.464ZM59.9155 107.793C59.1445 107.794 58.4053 108.101 57.8601 108.646C57.3149 109.191 57.0083 109.93 57.0074 110.701V213.556C57.0083 214.327 57.3149 215.066 57.8601 215.611C58.4053 216.156 59.1445 216.463 59.9155 216.464H234.768C235.539 216.463 236.279 216.156 236.824 215.611C237.369 215.066 237.676 214.327 237.677 213.556V110.701C237.676 109.93 237.369 109.191 236.824 108.646C236.279 108.101 235.539 107.794 234.768 107.793L59.9155 107.793Z" fill="#CBCBCB"/>
<path id="Vector_6" d="M224.005 532.85C219.702 532.85 215.497 531.575 211.92 529.185C208.343 526.794 205.555 523.397 203.908 519.423C202.262 515.448 201.831 511.074 202.671 506.855C203.51 502.635 205.582 498.759 208.624 495.717C211.666 492.675 215.542 490.604 219.761 489.764C223.98 488.925 228.354 489.356 232.329 491.002C236.303 492.649 239.701 495.437 242.091 499.014C244.481 502.591 245.757 506.796 245.757 511.098C245.75 516.865 243.456 522.394 239.378 526.472C235.301 530.55 229.772 532.844 224.005 532.85ZM224.005 491.02C220.033 491.02 216.151 492.197 212.849 494.404C209.547 496.61 206.974 499.746 205.454 503.415C203.935 507.084 203.537 511.121 204.312 515.016C205.086 518.911 206.999 522.488 209.807 525.296C212.615 528.104 216.193 530.017 220.087 530.791C223.982 531.566 228.019 531.169 231.688 529.649C235.357 528.129 238.493 525.556 240.699 522.254C242.906 518.952 244.083 515.07 244.083 511.098C244.077 505.775 241.96 500.672 238.196 496.907C234.432 493.143 229.328 491.026 224.005 491.02Z" fill="#CBCBCB"/>
<path id="Vector_7" d="M214.609 518.422C214.456 518.422 214.307 518.372 214.186 518.278C214.064 518.185 213.976 518.055 213.937 517.907C213.897 517.759 213.907 517.602 213.966 517.46C214.024 517.318 214.128 517.2 214.261 517.124L224.697 511.098L214.261 505.073C214.101 504.981 213.984 504.829 213.937 504.651C213.889 504.472 213.914 504.283 214.006 504.123C214.098 503.963 214.25 503.846 214.429 503.799C214.607 503.751 214.797 503.776 214.957 503.868L226.436 510.496C226.542 510.557 226.63 510.645 226.691 510.75C226.752 510.856 226.784 510.976 226.784 511.098C226.784 511.221 226.752 511.341 226.691 511.446C226.63 511.552 226.542 511.64 226.436 511.701L214.957 518.329C214.851 518.39 214.731 518.422 214.609 518.422Z" fill="#CBCBCB"/>
<path id="Vector_8" d="M230.002 520.839C229.817 520.839 229.64 520.765 229.51 520.635C229.379 520.504 229.306 520.327 229.306 520.143V502.054C229.307 501.87 229.38 501.694 229.511 501.564C229.641 501.434 229.818 501.361 230.002 501.361C230.186 501.361 230.362 501.434 230.493 501.564C230.623 501.694 230.697 501.87 230.698 502.054V520.143C230.697 520.327 230.624 520.504 230.494 520.635C230.363 520.765 230.186 520.839 230.002 520.839Z" fill="#CBCBCB"/>
<path id="Path 680" d="M102.696 261.771C101.829 261.771 100.998 262.116 100.385 262.729C99.7719 263.341 99.4276 264.173 99.4276 265.039C99.4276 265.906 99.7719 266.737 100.385 267.35C100.998 267.963 101.829 268.307 102.696 268.307H191.989C192.855 268.307 193.687 267.963 194.299 267.35C194.912 266.737 195.257 265.906 195.257 265.039C195.257 264.173 194.912 263.341 194.299 262.729C193.687 262.116 192.855 261.771 191.989 261.771H102.696Z" fill="#CCCCCC"/>
<path id="Path 680_2" d="M52.1956 306.771C51.3288 306.771 50.4976 307.116 49.8847 307.729C49.2719 308.341 48.9276 309.173 48.9276 310.039C48.9276 310.906 49.2719 311.737 49.8847 312.35C50.4976 312.963 51.3288 313.307 52.1956 313.307H242.489C243.355 313.307 244.187 312.963 244.799 312.35C245.412 311.737 245.757 310.906 245.757 310.039C245.757 309.173 245.412 308.341 244.799 307.729C244.187 307.116 243.355 306.771 242.489 306.771H52.1956Z" fill="#CCCCCC"/>
<path id="Path 680_3" d="M52.1956 332.771C51.3288 332.771 50.4976 333.116 49.8847 333.729C49.2719 334.341 48.9276 335.173 48.9276 336.039C48.9276 336.906 49.2719 337.737 49.8847 338.35C50.4976 338.963 51.3288 339.307 52.1956 339.307H242.489C243.355 339.307 244.187 338.963 244.799 338.35C245.412 337.737 245.757 336.906 245.757 336.039C245.757 335.173 245.412 334.341 244.799 333.729C244.187 333.116 243.355 332.771 242.489 332.771H52.1956Z" fill="#CCCCCC"/>
<path id="Path 680_4" d="M52.1956 358.771C51.3288 358.771 50.4976 359.116 49.8847 359.729C49.2719 360.341 48.9276 361.173 48.9276 362.039C48.9276 362.906 49.2719 363.737 49.8847 364.35C50.4976 364.963 51.3288 365.307 52.1956 365.307H242.489C243.355 365.307 244.187 364.963 244.799 364.35C245.412 363.737 245.757 362.906 245.757 362.039C245.757 361.173 245.412 360.341 244.799 359.729C244.187 359.116 243.355 358.771 242.489 358.771H52.1956Z" fill="#CCCCCC"/>
<path id="Path 680_5" d="M52.1956 384.771C51.3288 384.771 50.4976 385.116 49.8847 385.729C49.2719 386.341 48.9276 387.173 48.9276 388.039C48.9276 388.906 49.2719 389.737 49.8847 390.35C50.4976 390.963 51.3288 391.307 52.1956 391.307H242.489C243.355 391.307 244.187 390.963 244.799 390.35C245.412 389.737 245.757 388.906 245.757 388.039C245.757 387.173 245.412 386.341 244.799 385.729C244.187 385.116 243.355 384.771 242.489 384.771H52.1956Z" fill="#CCCCCC"/>
<path id="Path 680_6" d="M52.1956 410.771C51.7664 410.771 51.3414 410.856 50.9449 411.02C50.5485 411.184 50.1882 411.425 49.8847 411.729C49.5813 412.032 49.3406 412.392 49.1763 412.789C49.0121 413.185 48.9276 413.61 48.9276 414.039C48.9276 414.469 49.0121 414.893 49.1763 415.29C49.3406 415.686 49.5813 416.047 49.8847 416.35C50.1882 416.654 50.5485 416.894 50.9449 417.059C51.3414 417.223 51.7664 417.307 52.1956 417.307H242.489C243.355 417.307 244.187 416.963 244.799 416.35C245.412 415.737 245.757 414.906 245.757 414.039C245.757 413.173 245.412 412.341 244.799 411.729C244.187 411.116 243.355 410.771 242.489 410.771H52.1956Z" fill="#CCCCCC"/>
<path id="Path 680_7" d="M52.1956 436.771C51.3288 436.771 50.4976 437.116 49.8847 437.729C49.2719 438.341 48.9276 439.173 48.9276 440.039C48.9276 440.906 49.2719 441.737 49.8847 442.35C50.4976 442.963 51.3288 443.307 52.1956 443.307H242.489C243.355 443.307 244.187 442.963 244.799 442.35C245.412 441.737 245.757 440.906 245.757 440.039C245.757 439.173 245.412 438.341 244.799 437.729C244.187 437.116 243.355 436.771 242.489 436.771H52.1956Z" fill="#CCCCCC"/>
<path id="Vector_9" d="M514.279 466.041C515.296 465.189 516.114 464.125 516.675 462.923C517.236 461.721 517.526 460.41 517.526 459.084C517.526 457.757 517.235 456.447 516.674 455.245C516.112 454.043 515.294 452.979 514.277 452.128L507.531 333.41L488.285 337.761L501.009 453.705C499.692 455.509 499.082 457.733 499.295 459.956C499.508 462.179 500.529 464.247 502.165 465.767C503.8 467.288 505.937 468.155 508.17 468.206C510.403 468.256 512.576 467.486 514.279 466.041Z" fill="#9F616A"/>
<path id="Vector_10" d="M592.431 481.5C591.384 480.685 590.528 479.651 589.924 478.47C589.32 477.29 588.982 475.991 588.934 474.665C588.886 473.339 589.129 472.019 589.647 470.798C590.164 469.576 590.943 468.483 591.929 467.596L594.372 348.711L613.764 352.363L605.246 468.692C606.627 470.446 607.317 472.647 607.185 474.876C607.053 477.106 606.107 479.209 604.527 480.788C602.948 482.367 600.844 483.311 598.614 483.442C596.385 483.574 594.185 482.882 592.431 481.5Z" fill="#9F616A"/>
<path id="Vector_11" d="M602.692 658.185L617.792 658.184L622.099 622.957L602.689 622.958L602.692 658.185Z" fill="#9F616A"/>
<path id="Vector_12" d="M598.84 653.255L628.578 653.254H628.579C633.605 653.254 638.426 655.251 641.98 658.805C645.534 662.359 647.531 667.179 647.531 672.205V672.821L598.841 672.823L598.84 653.255Z" fill="#2F2E41"/>
<path id="Vector_13" d="M508.465 658.185L523.565 658.184L527.872 599.939L508.462 599.941L508.465 658.185Z" fill="#9F616A"/>
<path id="Vector_14" d="M504.613 653.255L534.351 653.254H534.352C539.379 653.254 544.199 655.251 547.753 658.805C551.307 662.359 553.304 667.179 553.304 672.205V672.821L504.614 672.823L504.613 653.255Z" fill="#2F2E41"/>
<path id="Vector_15" d="M570.497 288.212C584.141 288.212 595.202 277.151 595.202 263.507C595.202 249.863 584.141 238.803 570.497 238.803C556.853 238.803 545.793 249.863 545.793 263.507C545.793 277.151 556.853 288.212 570.497 288.212Z" fill="#9F616A"/>
<path id="Vector_16" d="M600.692 314.495C600.692 314.495 611.672 315.41 612.587 320.9C613.502 326.39 612.587 342.86 612.587 342.86C612.587 342.86 619.906 364.819 612.587 370.309C605.267 375.799 586.052 376.714 586.052 376.714L600.692 314.495Z" fill="#6C63FF"/>
<path id="Vector_17" d="M507.363 438.933L497.299 455.403C497.299 455.403 500.959 527.686 501.874 529.516C502.6 530.59 502.924 531.887 502.789 533.176V543.241L505.534 631.08C505.534 631.08 498.214 634.739 507.364 637.484C516.513 640.229 528.408 641.144 530.238 631.995C532.068 622.845 532.155 546.618 532.068 544.156L532.983 540.496L547.623 486.512L581.477 561.541L601.607 645.719C601.607 645.719 632.072 649.237 626.582 637.343C621.092 625.448 608.012 536.836 608.012 536.836C608.012 536.836 605.267 527.686 605.267 525.856C605.267 524.026 604.352 523.111 604.352 521.281C604.352 519.452 603.437 513.962 603.437 513.962L597.032 456.318L507.363 438.933Z" fill="#2F2E41"/>
<path id="Vector_18" d="M545.793 292.131C545.793 292.131 546.342 293.496 587.011 298.563C587.011 298.563 609.842 313.58 610.757 317.24C611.672 320.9 593.372 367.564 593.372 367.564L591.542 403.249C591.542 403.249 600.688 418.679 596.117 466.382C581.819 467.177 523.928 448.354 509.651 440.305C507.482 439.083 502.426 444.473 502.788 443.508C505.533 436.188 502.788 437.103 505.533 435.273C508.278 433.443 512.853 369.394 512.853 369.394C512.853 369.394 507.363 299.856 513.768 298.026C520.173 296.196 545.793 292.131 545.793 292.131Z" fill="#6C63FF"/>
<path id="Vector_19" d="M516.513 298.941C516.513 298.941 505.534 298.026 502.789 307.175C500.044 316.325 477.169 351.095 481.744 354.755C486.319 358.414 521.088 371.224 522.003 370.309C522.918 369.394 516.513 298.941 516.513 298.941Z" fill="#6C63FF"/>
<path id="Vector_20" d="M599.266 247.753C598.229 243.894 596.768 240.036 593.791 237.37C590.775 234.688 586.904 233.164 582.869 233.069C578.265 230.4 573.098 228.853 567.785 228.552C562.472 228.25 557.163 229.204 552.287 231.334C551.759 230.269 550.906 229.399 549.851 228.851C549.557 231.392 549.263 233.933 548.969 236.473C547.834 235.619 546.699 234.765 545.565 233.911C545.509 235.415 545.453 236.919 545.397 238.422C544.357 237.528 543.316 236.634 542.276 235.74C542.055 241.065 546.486 245.675 551.497 247.491C556.508 249.306 562.003 248.971 567.327 248.719C569.956 248.595 572.95 248.64 574.724 250.584C576.583 252.62 576.233 255.742 576.278 258.499C576.343 262.376 580.323 260.477 582.319 263.802C583.035 264.994 583.894 266.219 583.868 267.61C583.679 268.869 583.223 270.074 582.529 271.142C581.059 274.177 578.137 283.621 579.532 286.692C582.114 285.247 584.696 283.802 587.278 282.357C587.278 282.357 604.284 266.435 599.266 247.753Z" fill="#2F2E41"/>
<path id="Vector_21" d="M699.85 673.496H392.85C392.585 673.496 392.33 673.391 392.143 673.203C391.955 673.016 391.85 672.761 391.85 672.496C391.85 672.231 391.955 671.976 392.143 671.789C392.33 671.601 392.585 671.496 392.85 671.496H699.85C700.115 671.496 700.37 671.601 700.557 671.789C700.745 671.976 700.85 672.231 700.85 672.496C700.85 672.761 700.745 673.016 700.557 673.203C700.37 673.391 700.115 673.496 699.85 673.496Z" fill="#CBCBCB"/>
<path id="Vector_22" d="M441.252 671.895C441.252 671.895 426.315 644.325 390.193 656.247L441.252 671.895Z" fill="#F1F1F1"/>
<path id="Vector_23" d="M442.153 671.222C442.153 671.222 423.681 647.742 450.342 618.45L442.153 671.222Z" fill="#F1F1F1"/>
</g>
<defs>
<clipPath id="clip0_2_2">
<rect width="700.85" height="673.496" fill="white"/>
</clipPath>
</defs>
</svg>
