<svg width="700" height="400" viewBox="0 0 700 400" fill="none" xmlns="http://www.w3.org/2000/svg">
<g clip-path="url(#clip0_1_2)">
<rect width="700" height="400" fill="white"/>
<ellipse cx="41" cy="401" rx="89" ry="92" fill="#D9D9D9"/>
<path d="M476.602 248.182C474.784 248.182 473.163 248.03 471.739 247.727C470.314 247.455 469.33 247.182 468.784 246.909L471.511 237.455C474.117 238.121 476.42 238.364 478.42 238.182C480.42 238 482.193 237.106 483.739 235.5C485.314 233.924 486.754 231.364 488.057 227.818L490.057 222.364L464.239 152.182H475.875L495.148 207.818H495.875L515.148 152.182H526.784L497.148 232.182C495.814 235.788 494.163 238.773 492.193 241.136C490.223 243.53 487.936 245.303 485.33 246.455C482.754 247.606 479.845 248.182 476.602 248.182Z" fill="black"/>
<path d="M360.943 222V152.182H371.307V163.091H372.216C373.67 159.364 376.019 156.47 379.261 154.409C382.504 152.318 386.398 151.273 390.943 151.273C395.549 151.273 399.383 152.318 402.443 154.409C405.534 156.47 407.943 159.364 409.67 163.091H410.398C412.186 159.485 414.867 156.621 418.443 154.5C422.019 152.348 426.307 151.273 431.307 151.273C437.549 151.273 442.655 153.227 446.625 157.136C450.595 161.015 452.58 167.061 452.58 175.273V222H441.852V175.273C441.852 170.121 440.443 166.439 437.625 164.227C434.807 162.015 431.489 160.909 427.67 160.909C422.761 160.909 418.958 162.394 416.261 165.364C413.564 168.303 412.216 172.03 412.216 176.545V222H401.307V174.182C401.307 170.212 400.019 167.015 397.443 164.591C394.867 162.136 391.549 160.909 387.489 160.909C384.701 160.909 382.095 161.652 379.67 163.136C377.277 164.621 375.337 166.682 373.852 169.318C372.398 171.924 371.67 174.939 371.67 178.364V222H360.943Z" fill="black"/>
<path d="M249.693 222V152.182H260.057V163.091H260.966C262.42 159.364 264.769 156.47 268.011 154.409C271.254 152.318 275.148 151.273 279.693 151.273C284.299 151.273 288.133 152.318 291.193 154.409C294.284 156.47 296.693 159.364 298.42 163.091H299.148C300.936 159.485 303.617 156.621 307.193 154.5C310.769 152.348 315.057 151.273 320.057 151.273C326.299 151.273 331.405 153.227 335.375 157.136C339.345 161.015 341.33 167.061 341.33 175.273V222H330.602V175.273C330.602 170.121 329.193 166.439 326.375 164.227C323.557 162.015 320.239 160.909 316.42 160.909C311.511 160.909 307.708 162.394 305.011 165.364C302.314 168.303 300.966 172.03 300.966 176.545V222H290.057V174.182C290.057 170.212 288.769 167.015 286.193 164.591C283.617 162.136 280.299 160.909 276.239 160.909C273.451 160.909 270.845 161.652 268.42 163.136C266.027 164.621 264.087 166.682 262.602 169.318C261.148 171.924 260.42 174.939 260.42 178.364V222H249.693Z" fill="black"/>
<path d="M219.318 222V152.182H230.045V222H219.318ZM224.773 140.545C222.682 140.545 220.879 139.833 219.364 138.409C217.879 136.985 217.136 135.273 217.136 133.273C217.136 131.273 217.879 129.561 219.364 128.136C220.879 126.712 222.682 126 224.773 126C226.864 126 228.652 126.712 230.136 128.136C231.652 129.561 232.409 131.273 232.409 133.273C232.409 135.273 231.652 136.985 230.136 138.409C228.652 139.833 226.864 140.545 224.773 140.545Z" fill="black"/>
<path d="M186.909 128.909H198.182V195.455C198.182 201.394 197.091 206.439 194.909 210.591C192.727 214.742 189.652 217.894 185.682 220.045C181.712 222.197 177.03 223.273 171.636 223.273C166.545 223.273 162.015 222.348 158.045 220.5C154.076 218.621 150.955 215.955 148.682 212.5C146.409 209.045 145.273 204.939 145.273 200.182H156.364C156.364 202.818 157.015 205.121 158.318 207.091C159.652 209.03 161.47 210.545 163.773 211.636C166.076 212.727 168.697 213.273 171.636 213.273C174.879 213.273 177.636 212.591 179.909 211.227C182.182 209.864 183.909 207.864 185.091 205.227C186.303 202.561 186.909 199.303 186.909 195.455V128.909Z" fill="black"/>
<ellipse cx="676" rx="89" ry="92" fill="#D9D9D9"/>
</g>
<defs>
<clipPath id="clip0_1_2">
<rect width="700" height="400" fill="white"/>
</clipPath>
</defs>
</svg>
