<svg version="1.1" id="Layer_1" xmlns="http://www.w3.org/2000/svg" xmlns:xlink="http://www.w3.org/1999/xlink" x="0px" y="0px" viewBox="0 0 400 300" style="width: 136px;" xml:space="preserve" data-imageid="podcaster-46" imageName="Podcaster" class="illustrations_image">
<style type="text/css">
	.st0_podcaster-46{fill:#D1D3D4;}
	.st1_podcaster-46{fill:#FFFFFF;}
	.st2_podcaster-46{fill:#231F20;}
	.st3_podcaster-46{fill:#68E1FD;}
</style>
<path id="floor_podcaster-46" class="st0_podcaster-46" d="M331.6,251.4H34.7c-0.3,0-0.5-0.2-0.5-0.5s0.2-0.5,0.5-0.5h296.9c0.3,0,0.5,0.2,0.5,0.5&#10;&#9;S331.9,251.4,331.6,251.4z"/>
<g id="Character_and_chair_podcaster-46">
	<polygon class="st1_podcaster-46" points="185.9,274.5 191.6,274.5 208.2,201.2 200.2,201.2 &#9;"/>
	<path class="st2_podcaster-46" d="M191.6,274.9H186c-0.1,0-0.3-0.1-0.4-0.2c-0.1-0.1-0.1-0.2-0.1-0.4l14.3-73.3c0-0.2,0.2-0.4,0.4-0.4h8&#10;&#9;&#9;c0.1,0,0.3,0.1,0.4,0.2c0.1,0.1,0.1,0.3,0.1,0.4l-16.6,73.3C192.1,274.8,191.9,275,191.6,274.9z M186.5,274h4.7l16.4-72.4h-7&#10;&#9;&#9;L186.5,274z"/>
	<path class="st2_podcaster-46" d="M188.4,151.7c0,0-43.7,15.4-48.9,23.6s-7.8,82.3-7.8,82.3l23.6,2.5c0,0,6.4-67.5,9.7-70.5s59.9-34.3,59.9-34.3&#10;&#9;&#9;L188.4,151.7z"/>
	<path class="st2_podcaster-46" d="M155.4,260.6L155.4,260.6l-23.7-2.5c-0.2,0-0.4-0.2-0.4-0.5c0.1-3,2.6-74.3,7.9-82.6s47.3-23.2,49.1-23.8&#10;&#9;&#9;c0.1,0,0.1,0,0.2,0l36.5,3.6c0.2,0,0.3,0.2,0.4,0.4c0,0.2,0,0.4-0.2,0.5c-0.6,0.3-56.6,31.3-59.8,34.3c-2.3,2.1-7,43.2-9.6,70.2&#10;&#9;&#9;c0,0.1-0.1,0.2-0.1,0.3C155.5,260.6,155.5,260.6,155.4,260.6z M132.2,257.3l22.8,2.4c0.8-8.7,6.5-67.4,9.8-70.4&#10;&#9;&#9;c3.1-2.8,50.2-29,58.8-33.7l-35-3.4c-2.2,0.8-43.6,15.6-48.6,23.4S132.4,251.3,132.2,257.3z"/>
	<path class="st2_podcaster-46" d="M236.2,188.2c-1.1,0-56.3,0.6-56.3,0.6l26.1,58.8l-23.1,9.4c0,0-36-66.2-31.9-76.1s61.3-27.8,61.3-27.8&#10;&#9;&#9;l28.3,7.1C240.6,160.3,241.5,188.2,236.2,188.2z"/>
	<path class="st2_podcaster-46" d="M182.9,257.4c-0.2,0-0.3-0.1-0.4-0.2c-1.5-2.7-36-66.5-31.9-76.5s59.2-27.3,61.6-28c0.1,0,0.2,0,0.2,0&#10;&#9;&#9;l28.3,7.1c0.2,0.1,0.3,0.2,0.3,0.4c0,1,0.6,23.7-3.3,27.8c-0.4,0.4-0.9,0.7-1.5,0.7l-55.7,0.5l25.8,58.2c0,0.1,0,0.2,0,0.3&#10;&#9;&#9;c0,0.1-0.1,0.2-0.2,0.2l-23.1,9.3C183,257.4,183,257.4,182.9,257.4z M212.3,153.5c-2.9,0.9-57,18.1-60.9,27.5&#10;&#9;&#9;c-3.9,9.2,28.9,70.2,31.7,75.4l22.3-9L179.5,189c-0.1-0.2,0-0.5,0.2-0.6c0.1,0,0.1,0,0.2,0c0.6,0,55.2-0.6,56.3-0.6&#10;&#9;&#9;c0.3,0,0.7-0.2,0.9-0.4c3.5-3.6,3.1-23.9,3.1-26.8L212.3,153.5z"/>
	<path class="st1_podcaster-46" d="M177,120.8c0,0-33.2-7.1-40.9-11.4c0,0-4.2-9.3-5.7-9.2s2.2,8.4,2.2,8.4s-13.2-4.6-13.9-3.3s0.7,1.7,0.7,1.7&#10;&#9;&#9;s-1.7-0.1-1.5,1s0.9,0.9,0.9,0.9s-1.8,0.2-1.7,1.2s1.4,1,1.4,1s-2.2-0.2-1.3,1.2s12.2,5.4,18.8,8.3s46.7,21.4,46.7,21.4L177,120.8z&#10;&#9;&#9;"/>
	<path class="st2_podcaster-46" d="M182.8,142.7c-0.1,0-0.1,0-0.2,0c-0.4-0.2-40.2-18.5-46.7-21.4c-2.2-1-5-2.1-7.8-3.2&#10;&#9;&#9;c-6.5-2.6-10.6-4.3-11.2-5.3c-0.3-0.4-0.4-0.9-0.2-1.3c0.1-0.1,0.2-0.3,0.3-0.3c-0.2-0.2-0.3-0.5-0.3-0.7c-0.1-0.3,0-0.6,0.2-0.9&#10;&#9;&#9;c0.2-0.2,0.5-0.4,0.8-0.6c-0.1-0.2-0.2-0.4-0.2-0.6c-0.1-0.3,0-0.7,0.2-1c0.2-0.2,0.3-0.3,0.6-0.4c-0.1-0.1-0.1-0.2-0.2-0.3&#10;&#9;&#9;c-0.2-0.5-0.1-1,0.2-1.4c0.7-1.3,7.5,0.7,13.5,2.8c-1-2.3-2.6-6.6-2-7.7c0.1-0.2,0.3-0.4,0.6-0.4c1.6-0.2,4.4,5.7,6.1,9.3&#10;&#9;&#9;c7.8,4.1,40.3,11.2,40.6,11.2c0.2,0,0.3,0.2,0.3,0.3l5.9,21.4c0,0.2,0,0.4-0.1,0.5C183.1,142.7,182.9,142.7,182.8,142.7z&#10;&#9;&#9; M117.6,111.9c0,0.1,0.1,0.2,0.2,0.3c0.5,0.8,6.2,3.1,10.8,4.9c2.7,1.1,5.5,2.2,7.8,3.2c6,2.7,39.9,18.3,45.8,21l-5.5-20.2&#10;&#9;&#9;c-3.4-0.7-33.3-7.3-40.7-11.3c-0.1,0-0.2-0.1-0.2-0.2c-1.8-4-4.3-8.5-5.1-8.9c-0.2,0.8,1.1,4.6,2.5,7.8c0.1,0.2,0,0.4-0.1,0.5&#10;&#9;&#9;c-0.1,0.1-0.3,0.2-0.5,0.1c-5.8-2-12.6-3.9-13.4-3.4c-0.1,0.2-0.1,0.4-0.1,0.6c0.1,0.2,0.3,0.4,0.6,0.5c0.2,0.1,0.4,0.3,0.3,0.5&#10;&#9;&#9;c0,0.2-0.2,0.4-0.5,0.4c-0.3,0-0.7,0-1,0.2c0,0,0,0.1,0,0.2c0.1,0.4,0.3,0.6,0.3,0.6h0.1c0.3,0,0.5,0.2,0.5,0.4&#10;&#9;&#9;c0,0.2-0.1,0.4-0.3,0.5h-0.2c-0.4,0-0.8,0.2-1.1,0.4c0,0.1,0,0.1,0,0.2c0.1,0.4,0.4,0.6,0.8,0.6h0.2c0.2,0,0.4,0.2,0.4,0.5&#10;&#9;&#9;c0,0.3-0.3,0.5-0.6,0.4C118.2,111.7,117.9,111.7,117.6,111.9L117.6,111.9z"/>
	<ellipse class="st2_podcaster-46" cx="201.1" cy="58" rx="6.2" ry="7.6"/>
	<path class="st2_podcaster-46" d="M201.1,66c-3.7,0-6.6-3.6-6.6-8s3-8,6.6-8s6.7,3.6,6.7,8S204.8,66,201.1,66z M201.1,50.8&#10;&#9;&#9;c-3.2,0-5.8,3.2-5.8,7.2s2.6,7.2,5.8,7.2s5.8-3.2,5.8-7.2S204.3,50.8,201.1,50.8L201.1,50.8z"/>
	<path class="st1_podcaster-46" d="M249.8,89.6c-2.2-2.4-5.2-4.8-5-8c0.1-1.1,0.5-2.2,0.6-3.3c0.3-3.2-2.2-6-4.8-7.9s-5.6-3.5-7.2-6.3&#10;&#9;&#9;c-2.9-5-1-11.3-3.6-16.6c-2.4-5-7-8.5-12.5-9.6c-4.1-0.8-8.9-0.6-12.3,1.9c-3.4,2.5-5.7,6.3-6.4,10.5c-0.5,3.4,0.1,6.8,0.4,10.3&#10;&#9;&#9;c0.3,3.4,0.1,7.1-1.7,10s-5,4.5-7.8,6.4c-4.7,3.2-8,11.2-5.4,16.4c3.4,6.8,10,11.3,16.2,15.2c9.9,6.1,20.9,11.5,32.5,13.4&#10;&#9;&#9;c4.9,0.8,10.2,0.9,14.8-1.1C260.1,115.5,257.7,97.9,249.8,89.6z"/>
	<path class="st2_podcaster-46" d="M239,123c-2.1,0-4.2-0.2-6.2-0.5c-9.9-1.6-20.3-5.9-32.6-13.4c-6.1-3.7-12.9-8.3-16.4-15.4&#10;&#9;&#9;c-2.8-5.6,0.7-13.7,5.6-17c0.5-0.4,1.1-0.7,1.7-1.1c2.2-1.4,4.6-2.9,6-5.2c1.9-3,1.9-7,1.7-9.7c-0.1-0.8-0.1-1.7-0.2-2.5&#10;&#9;&#9;c-0.4-2.6-0.4-5.3-0.1-7.9c0.7-4.3,3-8.2,6.6-10.8c3-2.2,7.7-3,12.7-2c5.6,1.1,10.3,4.8,12.8,9.9c1.3,2.6,1.5,5.4,1.6,8.2&#10;&#9;&#9;c0.2,3,0.4,5.8,1.9,8.3c1.2,2.1,3.3,3.5,5.4,4.9c0.6,0.4,1.1,0.8,1.7,1.2c2.4,1.8,5.3,4.7,5,8.3c-0.1,0.5-0.2,1.1-0.3,1.6&#10;&#9;&#9;c-0.1,0.6-0.2,1.1-0.3,1.7c-0.1,2.6,1.9,4.7,3.9,6.7c0.3,0.3,0.7,0.7,1,1l0,0c5.1,5.4,7.7,14.1,6.3,21.1c-0.8,4.9-4.1,9-8.6,10.9&#10;&#9;&#9;C245.1,122.5,242,123.1,239,123z M213.2,38c-2.8-0.1-5.6,0.7-7.9,2.2c-3.3,2.4-5.6,6.1-6.2,10.2c-0.3,2.6-0.2,5.1,0.1,7.7&#10;&#9;&#9;c0.1,0.8,0.2,1.7,0.2,2.5c0.2,2.8,0.2,7-1.8,10.3c-1.5,2.4-4,4-6.3,5.5c-0.6,0.3-1.1,0.7-1.6,1.1c-4.4,3-7.8,10.8-5.2,15.8&#10;&#9;&#9;c3.4,6.8,10.1,11.3,16.1,15c12.2,7.5,22.5,11.7,32.3,13.3c6,1,10.7,0.6,14.5-1.1c4.3-1.8,7.3-5.7,8.1-10.3&#10;&#9;&#9;c1.3-6.8-1.1-15.1-6.1-20.3c-0.3-0.3-0.6-0.7-1-1c-2-2.1-4.3-4.4-4.2-7.4c0-0.6,0.2-1.2,0.3-1.8c0.1-0.5,0.2-1,0.3-1.5&#10;&#9;&#9;c0.3-3.2-2.3-5.8-4.6-7.5c-0.6-0.4-1.1-0.8-1.7-1.2c-2.1-1.5-4.3-3-5.6-5.2c-1.6-2.7-1.8-5.8-2-8.8c-0.2-2.7-0.4-5.4-1.6-7.8&#10;&#9;&#9;c-2.3-4.8-6.8-8.3-12.1-9.4C215.9,38.1,214.6,38,213.2,38z"/>
	<path class="st3_podcaster-46 targetColor" d="M192.3,91l-19.8,26.9c0,0,1.1,3.6,10.4,24.4c8.2-4.1,21.1-26.3,21.1-26.3L192.3,91z" style="fill: rgb(0, 0, 0);"/>
	<path class="st3_podcaster-46 targetColor" d="M213.7,80.9c0,0-17.9,2-22.2,10.7s-3.1,60.1-3.1,60.1l57.7,1.3c0,0-0.3-56-7.7-69.4&#10;&#9;&#9;C235.7,80.8,230.7,80,213.7,80.9z" style="fill: rgb(0, 0, 0);"/>
	<path class="st1_podcaster-46" d="M208.4,74.8l-0.1,10.5c0,0,1.1,5.8,7.4,4.1c3.8-1.1,6.9-3.9,8.5-7.5l-0.7-18.1c-0.8-3.2-1.2-6.5-1.1-9.7&#10;&#9;&#9;c-7.7-0.1-13.8-6-13.8-6s-2.7,4-3.8,5.3c-0.9,0.9-1.7,2-2.4,3.2c-1.1,2-1,4.5-1,6.8c0,2.6,0.3,5.3,0.8,7.9&#10;&#9;&#9;C203.3,76,208.4,74.8,208.4,74.8z"/>
	<path class="st2_podcaster-46" d="M213.6,90.2c-1.1,0-2.1-0.3-3-0.8c-1.4-0.9-2.3-2.4-2.6-4v-10c-1.4,0.2-2.8-0.1-4-0.8c-1.2-0.8-1.9-2-2.2-3.4&#10;&#9;&#9;c-0.5-2.6-0.8-5.3-0.8-8c-0.1-2.2-0.1-4.8,1-7c0.7-1.2,1.6-2.2,2.6-3.2c1.1-1.2,3.7-5.2,3.8-5.2c0.1-0.1,0.2-0.2,0.3-0.2&#10;&#9;&#9;c0.1,0,0.3,0,0.4,0.1c0.1,0,6.1,5.7,13.5,5.8c0.1,0,0.2,0.1,0.3,0.1c0.1,0.1,0.2,0.2,0.2,0.3c-0.1,3,0.1,5.9,0.9,8.8&#10;&#9;&#9;c0.1,0.3,0.1,0.6,0.2,0.9l0,0c0,0,0,0.3,0.7,18.1c0,0.1,0,0.1,0,0.2c-1.6,3.8-4.8,6.7-8.8,7.8C215.2,90,214.4,90.2,213.6,90.2z&#10;&#9;&#9; M208.8,85.3c0.5,2.7,3.1,4.5,5.7,4c0.4-0.1,0.7-0.2,1.1-0.3c3.6-1.1,6.6-3.7,8.1-7.1c-0.1-1.4-0.7-17.9-0.7-18&#10;&#9;&#9;c0-0.2-0.1-0.5-0.2-0.7c-0.7-2.8-1-5.7-0.9-8.6c-6.6-0.3-11.8-4.4-13.3-5.7c-0.7,1.1-2.6,3.8-3.6,4.9c-0.9,0.9-1.7,1.9-2.3,3.1&#10;&#9;&#9;c-1,1.9-1,4.4-0.9,6.5c0,2.6,0.3,5.2,0.8,7.8c0.2,1.1,0.8,2.1,1.8,2.8c1.2,0.6,2.6,0.8,3.9,0.6c0.1,0,0.3,0,0.4,0.1&#10;&#9;&#9;c0.1,0.1,0.2,0.2,0.2,0.4L208.8,85.3L208.8,85.3z"/>
	<path class="st2_podcaster-46" d="M208.5,80c0,0,4.2,0.2,7-2.6c1.6-1.5,2.4-3.5,2.3-5.7c0,0-4.6,3.1-9.4,3.2L208.5,80z"/>
	<path class="st2_podcaster-46" d="M208.7,80.4h-0.2c-0.2,0-0.4-0.2-0.4-0.4l-0.1-5.2c0-0.2,0.2-0.4,0.4-0.4c4.6-0.1,9.1-3.1,9.1-3.1&#10;&#9;&#9;c0.1-0.1,0.3-0.1,0.4,0c0.1,0.1,0.2,0.2,0.3,0.3c0.1,2.3-0.8,4.5-2.4,6C213.9,79.4,211.3,80.4,208.7,80.4z M208.9,75.2l0.1,4.3&#10;&#9;&#9;c2.3,0,4.5-0.9,6.2-2.5c1.3-1.2,2-2.8,2.2-4.6C214.8,74,211.9,74.9,208.9,75.2z"/>
	<path class="st1_podcaster-46" d="M212.1,59.8c0,0-3.4,5-2.6,5.9s3,0.3,3,0.3"/>
	<path class="st2_podcaster-46" d="M211.1,66.6c-0.7,0.1-1.4-0.2-1.9-0.6c-0.9-1,1.2-4.5,2.5-6.5c0.1-0.2,0.4-0.3,0.6-0.1&#10;&#9;&#9;c0.2,0.1,0.3,0.4,0.1,0.6c-1.6,2.4-2.8,4.9-2.6,5.4c0.4,0.5,1.8,0.3,2.6,0.2c0.2-0.1,0.5,0.1,0.5,0.3c0.1,0.2-0.1,0.5-0.3,0.5l0,0&#10;&#9;&#9;C212.2,66.5,211.7,66.6,211.1,66.6z"/>
	
		<ellipse transform="matrix(3.925982e-02 -0.9992 0.9992 3.925982e-02 140.3886 263.7766)" class="st2_podcaster-46" cx="207.4" cy="58.9" rx="1.1" ry="0.6"/>
	
		<ellipse transform="matrix(3.925982e-02 -0.9992 0.9992 3.925982e-02 149.0212 270.8096)" class="st2_podcaster-46" cx="215.3" cy="57.9" rx="1.1" ry="0.6"/>
	<ellipse class="st2_podcaster-46" cx="225.6" cy="59.5" rx="6.2" ry="7.6"/>
	<path class="st2_podcaster-46" d="M225.6,67.5c-3.7,0-6.6-3.6-6.6-8s3-8,6.6-8s6.7,3.6,6.7,8S229.2,67.5,225.6,67.5z M225.6,52.3&#10;&#9;&#9;c-3.2,0-5.8,3.2-5.8,7.2s2.6,7.1,5.8,7.1s5.8-3.2,5.8-7.1S228.8,52.3,225.6,52.3z"/>
	<path class="st2_podcaster-46" d="M223.8,53.5c-1.1-5.3-3.3-10.3-6.3-14.7c1.5,0.3,3,0.8,4.3,1.5c0,0,5.1,7.1,6,15.3L223.8,53.5z"/>
	<path class="st2_podcaster-46" d="M227.8,56.1c-0.1,0-0.1,0-0.2-0.1l-3.9-2.1c-0.1-0.1-0.2-0.2-0.2-0.3c-1.1-5.2-3.2-10.2-6.2-14.5&#10;&#9;&#9;c-0.1-0.1-0.1-0.3,0-0.5c0.1-0.2,0.3-0.2,0.4-0.2c1.5,0.3,3,0.8,4.4,1.6c0.1,0,0.1,0.1,0.2,0.1c0.2,0.3,5.2,7.3,6,15.5&#10;&#9;&#9;c0,0.2,0,0.3-0.2,0.4C227.9,56,227.9,56.1,227.8,56.1z M224.2,53.2l3,1.6c-0.9-5.1-2.8-9.9-5.7-14.2c-1-0.5-2-0.9-3-1.2&#10;&#9;&#9;C221.2,43.7,223.1,48.3,224.2,53.2z"/>
	<path class="st1_podcaster-46" d="M223.8,65.6c-0.1,0-0.2,0-0.3-0.1c-2-1.9-2.9-3.9-2.8-5.9c0.2-2.2,1.3-4.2,3-5.6c0.2-0.2,0.4-0.2,0.6,0&#10;&#9;&#9;c0.2,0.2,0.2,0.4,0,0.6c0,0,0,0-0.1,0.1c-1.5,1.3-2.5,3.1-2.7,5c0,2,1,4,2.5,5.2c0.2,0.2,0.2,0.5,0,0.6&#10;&#9;&#9;C224,65.5,223.9,65.6,223.8,65.6z"/>
	<path class="st1_podcaster-46" d="M209.9,68.6l2.7-0.7c0,0,0.6,3.9-1,4.3S209.9,68.6,209.9,68.6z"/>
	<path class="st2_podcaster-46" d="M211.4,72.7c-0.3,0-0.5-0.1-0.7-0.2c-1.1-0.8-1.2-3.5-1.2-3.8c0-0.2,0.1-0.4,0.3-0.4l2.7-0.7&#10;&#9;&#9;c0.1,0,0.2,0,0.4,0.1c0.1,0.1,0.2,0.2,0.2,0.3c0.1,0.7,0.5,4.3-1.3,4.8C211.6,72.7,211.5,72.7,211.4,72.7z M210.3,69&#10;&#9;&#9;c0.1,1,0.4,2.4,0.9,2.7c0.1,0.1,0.2,0.1,0.3,0.1c0.7-0.2,0.8-1.9,0.7-3.3L210.3,69z"/>
	<path class="st2_podcaster-46" d="M188.3,141L188.3,141c-0.3-0.1-0.5-0.3-0.4-0.5l9.8-44.9c0.1-0.2,0.3-0.4,0.5-0.3c0.2,0.1,0.4,0.3,0.3,0.5&#10;&#9;&#9;c0,0,0,0,0,0l-9.8,44.9C188.6,140.9,188.5,141,188.3,141z"/>
	<path class="st1_podcaster-46" d="M184.3,189.1v0.8c0,6.2,5.1,11.3,11.3,11.3h55.7c6.2,0,11.3-5.1,11.3-11.3v-78c0-8.2-14.5-9.9-18.6-9.3v48.9&#10;&#9;&#9;c0,0-20.1-2.9-28.1,9.9c-4.7,7.4-5.2,27.2-5.2,27.2L184.3,189.1z"/>
	<path class="st2_podcaster-46" d="M251.3,201.6h-55.7c-6.5,0-11.8-5.3-11.8-11.8v-0.8c0-0.2,0.2-0.5,0.4-0.5c0,0,0,0,0,0l26-0.5&#10;&#9;&#9;c0.1-3,0.9-20.1,5.3-27c7.4-11.8,24.8-10.5,28-10.2v-48.4c0-0.2,0.2-0.4,0.4-0.4c3-0.4,11.9,0.3,16.5,4.3c1.7,1.3,2.6,3.4,2.6,5.5&#10;&#9;&#9;v78C263,196.3,257.8,201.6,251.3,201.6z M184.7,189.5v0.3c0,6,4.9,10.8,10.9,10.9h55.7c6,0,10.8-4.9,10.8-10.9v-78&#10;&#9;&#9;c0-1.9-0.9-3.6-2.3-4.8c-4.1-3.6-12.2-4.4-15.4-4.1v48.5c0,0.1-0.1,0.3-0.2,0.3c-0.1,0.1-0.2,0.1-0.4,0.1c-0.2,0-19.9-2.7-27.7,9.7&#10;&#9;&#9;c-4.6,7.2-5.1,26.8-5.1,27c0,0.2-0.2,0.4-0.4,0.4L184.7,189.5z"/>
	<path class="st3_podcaster-46 targetColor" d="M238.4,83.6c0,0,17.8,35.4,23.6,43.7s5.2,19.8,5.2,19.8l-17.6-1.3c0,0-16.1-26.2-20.7-32.7L238.4,83.6z" style="fill: rgb(0, 0, 0);"/>
	<path class="st1_podcaster-46" d="M267.3,147c0,0-6.3-11.5-14.6-12.9s-42.6,3.3-42.6,3.3s-5.2-2.2-7.4-1.1s-11.8,6.6-10.4,8.5s4.7-0.8,6.9,0&#10;&#9;&#9;s7.1,0.6,10.4,0.8S267.6,150.9,267.3,147z"/>
	<path class="st2_podcaster-46" d="M256.7,149c-11.5,0-30-1.4-46.3-2.8l-0.9-0.1c-1.1-0.1-2.4-0.1-3.7-0.1c-2.6-0.1-5.4-0.1-6.9-0.7&#10;&#9;&#9;c-1-0.2-2-0.1-3,0.3c-1.5,0.4-3.1,0.9-4.1-0.5c-0.2-0.3-0.3-0.7-0.2-1c0.7-2.9,10.7-8.1,10.8-8.1c2.2-1.1,6.9,0.7,7.7,1&#10;&#9;&#9;c2.6-0.4,34.6-4.6,42.6-3.3c8.4,1.4,14.6,12.7,14.9,13.1c0,0.1,0.1,0.1,0.1,0.2c0,0.3-0.1,0.5-0.3,0.7&#10;&#9;&#9;C266.6,148.6,262.6,149,256.7,149z M198.2,144.3c0.4,0,0.8,0.1,1.1,0.2c1.4,0.5,4,0.6,6.6,0.6c1.4,0,2.6,0.1,3.7,0.1l0.9,0.1&#10;&#9;&#9;c39.9,3.5,55.2,3.1,56.3,1.8c-0.8-1.4-6.7-11.3-14.1-12.5c-8.1-1.4-42.1,3.2-42.5,3.3c-0.1,0-0.2,0-0.2,0c-1.4-0.6-5.4-1.9-7-1.1&#10;&#9;&#9;c-2.7,1.4-9.8,5.6-10.3,7.6c0,0.1,0,0.2,0,0.3c0.6,0.8,1.5,0.6,3.1,0.1C196.5,144.5,197.3,144.3,198.2,144.3L198.2,144.3z"/>
	<path class="st2_podcaster-46" d="M241.3,131.5c-0.2,0-0.3-0.1-0.4-0.3l-12.1-26.4c-0.1-0.2,0-0.5,0.2-0.6c0.2-0.1,0.5,0,0.6,0.2c0,0,0,0,0,0&#10;&#9;&#9;l12.1,26.4c0.1,0.2,0,0.5-0.2,0.6C241.4,131.5,241.3,131.5,241.3,131.5z"/>
	<path class="st1_podcaster-46" d="M159.8,207.4c-0.2,0-0.3-0.1-0.4-0.3c-1.2-2.6-11.3-25.3-8.7-28.8s40.6-18.8,42.2-19.5c0.2-0.1,0.5,0,0.6,0.2&#10;&#9;&#9;c0.1,0.2,0,0.5-0.2,0.6c0,0-0.1,0-0.1,0c-11,4.4-39.9,16.6-41.9,19.2c-1.7,2.3,4.4,17.9,8.9,27.9c0.1,0.2,0,0.5-0.2,0.6&#10;&#9;&#9;C160,207.4,159.9,207.4,159.8,207.4z"/>
	<path class="st1_podcaster-46" d="M206,247.6c0,0,4.9,9.2,4.1,9.7s-35.5,17.4-34.3,14.1s7.1-14.4,7.1-14.4"/>
	<path class="st2_podcaster-46" d="M176.2,272.2c-0.2,0-0.4,0-0.6-0.1c-0.3-0.2-0.3-0.6-0.2-0.9c1.3-3.3,6.8-14.1,7.1-14.5&#10;&#9;&#9;c0.1-0.2,0.4-0.3,0.6-0.2c0.2,0.1,0.3,0.4,0.2,0.6c-0.1,0.1-5.6,10.8-7,14.2l0,0c3.5,0,30.8-12.9,33.3-14.4c0-1-2.1-5.3-4.1-9.2&#10;&#9;&#9;c-0.1-0.2,0-0.5,0.2-0.6c0.2-0.1,0.5,0,0.6,0.2c5,9.5,4.3,10.1,4,10.3S181.1,272.2,176.2,272.2z"/>
	<path class="st1_podcaster-46" d="M155.4,260.2l-1.6,12c0,0-39.4,1.3-37.9-0.5s15.9-13.9,15.9-13.9"/>
	<path class="st2_podcaster-46" d="M130.3,273.1c-8.1,0-14.6-0.3-15-1.1c-0.1-0.2-0.1-0.5,0.1-0.6c1.5-1.8,15.4-13.5,16-14&#10;&#9;&#9;c0.2-0.2,0.5-0.1,0.6,0.1c0.2,0.2,0.2,0.5,0,0.6c0,0,0,0,0,0c-0.1,0.1-13.2,11-15.6,13.6c3,0.9,23.7,0.5,36.9,0.1l1.6-11.6&#10;&#9;&#9;c0-0.3,0.3-0.4,0.5-0.4s0.4,0.3,0.4,0.5c0,0,0,0,0,0l-1.6,12c0,0.2-0.2,0.4-0.4,0.4C147,272.8,137.9,273.1,130.3,273.1z"/>
	<polygon class="st1_podcaster-46" points="264.8,274.5 259.1,274.5 242.6,201.2 250.5,201.2 &#9;"/>
	<path class="st2_podcaster-46" d="M264.8,274.9h-5.7c-0.2,0-0.4-0.2-0.4-0.4l-16.6-73.3c0-0.1,0-0.3,0.1-0.4c0.1-0.1,0.2-0.2,0.4-0.2h8&#10;&#9;&#9;c0.2,0,0.4,0.2,0.4,0.4l14.3,73.3c0,0.1,0,0.3-0.1,0.4C265.1,274.9,265,274.9,264.8,274.9z M259.5,274h4.7l-14.1-72.4h-7L259.5,274&#10;&#9;&#9;z"/>
	<path class="st2_podcaster-46" d="M250,233.8c-0.1,0-0.2,0-0.2-0.1l-43.4-25c-0.2-0.1-0.3-0.4-0.2-0.6c0.1-0.2,0.4-0.3,0.6-0.2l43.4,25&#10;&#9;&#9;c0.2,0.1,0.3,0.4,0.2,0.6C250.3,233.7,250.2,233.8,250,233.8L250,233.8z"/>
	<path class="st2_podcaster-46" d="M201.1,233.8c-0.2,0-0.5-0.2-0.5-0.4c0-0.2,0.1-0.3,0.2-0.4l43.4-25c0.2-0.1,0.5-0.1,0.6,0.2&#10;&#9;&#9;c0.1,0.2,0,0.5-0.2,0.6l-43.4,25C201.2,233.7,201.1,233.8,201.1,233.8z"/>
</g>
<g id="desk_podcaster-46">
	<polygon class="st1_podcaster-46" points="80.1,274.7 76.2,274.7 84.2,154.7 90.8,154.7 &#9;"/>
	<path class="st2_podcaster-46" d="M80.1,275.2h-4c-0.1,0-0.2-0.1-0.3-0.1c-0.1-0.1-0.1-0.2-0.1-0.3l8-120c0-0.2,0.2-0.4,0.5-0.4h6.6&#10;&#9;&#9;c0.3,0,0.5,0.2,0.5,0.5c0,0,0,0,0,0l-10.6,120C80.5,275,80.4,275.2,80.1,275.2z M76.7,274.3h3l10.6-119.1h-5.7L76.7,274.3z"/>
	<polygon class="st1_podcaster-46" points="279.6,274.7 283.6,274.7 275.6,154.7 269,154.7 &#9;"/>
	<path class="st2_podcaster-46" d="M283.6,275.2h-4c-0.2,0-0.4-0.2-0.5-0.4l-10.6-120c0-0.1,0-0.3,0.1-0.4c0.1-0.1,0.2-0.2,0.3-0.1h6.6&#10;&#9;&#9;c0.2,0,0.4,0.2,0.5,0.4l8,120c0,0.1,0,0.2-0.1,0.3C283.8,275.1,283.7,275.2,283.6,275.2z M280.1,274.3h3l-7.9-119.1h-5.7&#10;&#9;&#9;L280.1,274.3z"/>
	<path class="st1_podcaster-46" d="M64,146.5h231.8c2.3,0,4.2,1.9,4.2,4.2l0,0c0,2.3-1.9,4.2-4.2,4.2H64c-2.3,0-4.2-1.9-4.2-4.2l0,0&#10;&#9;&#9;C59.8,148.4,61.6,146.5,64,146.5z"/>
	<path class="st2_podcaster-46" d="M295.8,155.4H64c-2.6,0-4.7-2.1-4.7-4.7s2.1-4.7,4.7-4.7h231.8c2.6,0,4.7,2.1,4.7,4.7&#10;&#9;&#9;C300.5,153.3,298.4,155.4,295.8,155.4L295.8,155.4z M64,146.9c-2.1-0.1-3.9,1.5-4,3.6c-0.1,2.1,1.5,3.9,3.6,4c0.1,0,0.3,0,0.4,0&#10;&#9;&#9;h231.8c2.1-0.1,3.7-1.9,3.6-4c-0.1-1.9-1.6-3.5-3.6-3.6H64z"/>
</g>
<g id="mic_podcaster-46">
	<path class="st1_podcaster-46" d="M171.3,81.9l5.6-1.9c2-0.7,4.3,0.4,5,2.5l0.7,2.1c0.7,2.1-0.4,4.3-2.5,5l-5.6,1.9l0,0L171.3,81.9L171.3,81.9z"/>
	<path class="st2_podcaster-46" d="M174.4,91.9c-0.2,0-0.4-0.1-0.4-0.3l-3.2-9.5c0-0.1,0-0.2,0-0.3c0-0.1,0.1-0.2,0.3-0.2l5.6-1.9&#10;&#9;&#9;c2.3-0.8,4.8,0.5,5.6,2.8l0.7,2.1c0.8,2.3-0.4,4.8-2.7,5.6c0,0,0,0,0,0l0,0l-5.6,1.9L174.4,91.9z M171.8,82.2l2.9,8.7l5.2-1.7&#10;&#9;&#9;c0.9-0.3,1.6-0.9,2-1.7c0.4-0.8,0.5-1.8,0.2-2.7l-0.7-2.1c-0.3-0.9-0.9-1.6-1.7-2c-0.8-0.4-1.8-0.5-2.6-0.2L171.8,82.2z M180,89.5&#10;&#9;&#9;L180,89.5z"/>
	<path class="st2_podcaster-46" d="M155.4,86.9l15.8-5.3l0,0l3.3,10l0,0l-15.8,5.3c-2.6,0.9-5.5-0.5-6.3-3.2l-0.2-0.5&#10;&#9;&#9;C151.4,90.7,152.8,87.8,155.4,86.9L155.4,86.9z"/>
	<path class="st2_podcaster-46" d="M157.2,97.6c-2.4,0-4.5-1.5-5.2-3.7l-0.2-0.5c-1-2.9,0.6-6,3.5-6.9c0,0,0,0,0,0l0,0l15.8-5.2&#10;&#9;&#9;c0.2-0.1,0.5,0,0.6,0.3c0,0,0,0,0,0l3.3,10c0,0.1,0,0.2,0,0.3c-0.1,0.1-0.2,0.2-0.3,0.2l-15.8,5.2&#10;&#9;&#9;C158.4,97.5,157.8,97.6,157.2,97.6z M155.6,87.3c-2.4,0.8-3.7,3.4-2.9,5.8l0.2,0.5c0.8,2.4,3.4,3.7,5.8,2.9l15.4-5.1l-3.1-9.2&#10;&#9;&#9;L155.6,87.3z"/>
	<polygon class="st2_podcaster-46" points="152.2,93.1 150.3,93.8 151.1,95.8 153.2,95 &#9;"/>
	<path class="st2_podcaster-46" d="M151.1,96.3c-0.2,0-0.3-0.1-0.4-0.3l-0.8-2c-0.1-0.2,0-0.5,0.2-0.6c0,0,0,0,0,0l1.9-0.8c0.2-0.1,0.5,0,0.6,0.2&#10;&#9;&#9;l1,2c0.1,0.1,0.1,0.2,0,0.4c0,0.1-0.1,0.2-0.3,0.2l-2.1,0.8C151.2,96.3,151.1,96.3,151.1,96.3z M150.9,94.1l0.5,1.2l1.3-0.5&#10;&#9;&#9;l-0.6-1.2L150.9,94.1z"/>
	<path class="st1_podcaster-46" d="M156.2,143.6h16.6c1.3,0,2.4,1.1,2.4,2.4v0.5l0,0h-21.4l0,0V146C153.7,144.7,154.8,143.6,156.2,143.6&#10;&#9;&#9;C156.2,143.6,156.2,143.6,156.2,143.6z"/>
	<path class="st2_podcaster-46" d="M175.2,147h-21.4c-0.3,0-0.5-0.2-0.5-0.5v0V146c0-1.6,1.3-2.9,2.9-2.9h16.6c1.6,0,2.9,1.3,2.9,2.9v0.5&#10;&#9;&#9;C175.6,146.8,175.5,147,175.2,147C175.2,147,175.2,147,175.2,147z M154.2,146.1h20.5c0-1.1-0.9-2-2-2h-16.5&#10;&#9;&#9;C155.1,144.1,154.2,145,154.2,146.1z"/>
	<path class="st1_podcaster-46" d="M164.4,89.4L164.4,89.4c1.3,0,2.3,1,2.3,2.3l0,0v51.9l0,0h-4.5l0,0V91.7C162.1,90.4,163.1,89.4,164.4,89.4&#10;&#9;&#9;L164.4,89.4L164.4,89.4z"/>
	<path class="st2_podcaster-46" d="M166.6,144.1h-4.5c-0.3,0-0.5-0.2-0.5-0.5V91.7c0.1-1.5,1.4-2.7,2.9-2.6c1.4,0.1,2.5,1.2,2.6,2.6v51.9&#10;&#9;&#9;C167.1,143.9,166.9,144.1,166.6,144.1z M162.6,143.2h3.6V91.7c0-1-0.8-1.8-1.8-1.8c-1,0-1.8,0.8-1.8,1.8c0,0,0,0,0,0V143.2z"/>
	<path class="st2_podcaster-46" d="M166.8,130.2c-0.1,0-0.2-0.1-0.3-0.1c-0.2-0.2-0.2-0.4,0-0.6c0,0,0,0,0,0c2.1-1.7,3.4-4.2,3.7-6.9&#10;&#9;&#9;c0.1-1.8-0.7-3.6-2-4.9c-1.7-1.6-3.8-2.8-6.1-3.4c-0.9-0.3-1.8-0.5-2.6-0.8c-1.5-0.4-2.9-0.9-4.3-1.4c-2.4-1-5.5-2.8-6.9-6.2&#10;&#9;&#9;c-1.6-3.6-1.2-7.8,1.1-11.1c0.1-0.2,0.4-0.2,0.6-0.1c0.2,0.1,0.2,0.4,0.1,0.6c-2.1,3-2.5,6.9-1,10.2c1.3,3.1,4.2,4.8,6.4,5.7&#10;&#9;&#9;c1.4,0.5,2.8,1,4.2,1.4c0.9,0.2,1.8,0.5,2.7,0.8c2.4,0.7,4.6,1.9,6.4,3.6c1.5,1.5,2.3,3.5,2.2,5.6c-0.3,2.9-1.7,5.7-4,7.5&#10;&#9;&#9;C166.9,130.1,166.9,130.1,166.8,130.2z"/>
</g>
<g id="laptop_podcaster-46">
	<path class="st2_podcaster-46" d="M73.9,115.2h38.7c1,0,1.9,0.7,2.2,1.7l7.2,26.1h25.1c0.9-0.1,1.7,0.6,1.7,1.5c0.1,0.9-0.6,1.7-1.5,1.7&#10;&#9;&#9;c-0.1,0-0.2,0-0.3,0H81.2c-1,0-1.9-0.7-2.2-1.7L71.7,118c-0.3-1.2,0.4-2.5,1.6-2.8C73.6,115.2,73.7,115.2,73.9,115.2z"/>
	<path class="st2_podcaster-46" d="M147.1,146.6H81.2c-1.2,0-2.3-0.8-2.6-2l-7.2-26.4c-0.4-1.4,0.4-2.9,1.9-3.3c0.2-0.1,0.5-0.1,0.7-0.1h38.7&#10;&#9;&#9;c1.2,0,2.3,0.8,2.6,2l7.1,25.8h24.8c1.1,0,2,0.9,2,2S148.2,146.6,147.1,146.6L147.1,146.6z M73.9,115.6c-1,0-1.8,0.8-1.8,1.8&#10;&#9;&#9;c0,0.2,0,0.3,0.1,0.5l7.2,26.4c0.2,0.8,0.9,1.3,1.8,1.4h65.9c0.6-0.1,1.1-0.6,1-1.3c-0.1-0.6-0.5-1-1-1H122c-0.2,0-0.4-0.1-0.4-0.3&#10;&#9;&#9;l-7.2-26c-0.2-0.8-0.9-1.4-1.8-1.3L73.9,115.6z"/>
	<path class="st1_podcaster-46" d="M120.9,143.1H82.2c-0.3,0-0.5-0.2-0.5-0.5s0.2-0.5,0.5-0.5h38.7c0.3,0,0.5,0.2,0.5,0.5&#10;&#9;&#9;C121.4,142.9,121.2,143.1,120.9,143.1z"/>
</g>
<g id="On_Air_podcaster-46">
	<path class="st0_podcaster-46" d="M116.8,77.9h-59c-2.3,0-4.1-1.8-4.1-4.1c0,0,0,0,0,0V51.2c0-2.3,1.8-4.1,4.1-4.1l0,0h59c2.3,0,4.1,1.8,4.1,4.1&#10;&#9;&#9;v0v22.6C120.9,76,119.1,77.9,116.8,77.9C116.8,77.9,116.8,77.9,116.8,77.9z M57.8,48.1c-1.7,0-3.1,1.4-3.1,3.1v22.6&#10;&#9;&#9;c0,1.7,1.4,3.1,3.1,3.1h0h59c1.7,0,3.1-1.4,3.1-3.1l0,0V51.2c0-1.7-1.4-3.1-3.1-3.1H57.8z"/>
	<path class="st0_podcaster-46" d="M64.6,62.5c0-0.7,0.1-1.3,0.4-2c0.2-0.6,0.6-1.1,1-1.5c0.4-0.4,1-0.7,1.5-0.9c1.3-0.4,2.6-0.4,3.9,0&#10;&#9;&#9;c0.6,0.2,1.1,0.5,1.5,0.9c0.4,0.4,0.8,0.9,1,1.5c0.5,1.3,0.5,2.6,0,3.9c-0.2,0.6-0.6,1.1-1,1.5c-0.4,0.4-1,0.7-1.5,0.9&#10;&#9;&#9;c-1.3,0.4-2.6,0.4-3.9,0c-0.6-0.2-1.1-0.5-1.5-0.9c-0.4-0.4-0.8-0.9-1-1.5C64.7,63.8,64.6,63.1,64.6,62.5z M66.7,62.5&#10;&#9;&#9;c0,0.4,0.1,0.8,0.2,1.2c0.1,0.3,0.3,0.6,0.6,0.9c0.2,0.3,0.5,0.5,0.9,0.6c0.7,0.3,1.6,0.3,2.3,0c0.3-0.1,0.6-0.3,0.9-0.6&#10;&#9;&#9;c0.2-0.3,0.4-0.6,0.6-0.9c0.3-0.7,0.3-1.6,0-2.3c-0.1-0.3-0.3-0.7-0.6-0.9c-0.2-0.3-0.5-0.5-0.9-0.6c-0.7-0.3-1.6-0.3-2.3,0&#10;&#9;&#9;c-0.3,0.1-0.6,0.3-0.9,0.6c-0.3,0.3-0.4,0.6-0.6,0.9C66.7,61.7,66.6,62.1,66.7,62.5z"/>
	<path class="st0_podcaster-46" d="M75.6,58h2.7l3.8,6.2l0,0V58h2v9h-2.6l-3.9-6.4l0,0V67h-2L75.6,58z"/>
	<path class="st0_podcaster-46" d="M92.6,58h1.6l3.9,9H96l-0.8-1.9h-3.5L90.9,67h-2.2L92.6,58z M93.4,60.6l-1.1,2.8h2.2L93.4,60.6z"/>
	<path class="st0_podcaster-46" d="M99.1,58h2v9h-2V58z"/>
	<path class="st0_podcaster-46" d="M102.8,58h3.5c0.4,0,0.9,0,1.3,0.1c0.4,0.1,0.7,0.2,1.1,0.4c0.3,0.2,0.6,0.5,0.7,0.8c0.2,0.4,0.3,0.9,0.3,1.3&#10;&#9;&#9;c0,0.6-0.2,1.1-0.5,1.6c-0.4,0.5-0.9,0.8-1.4,0.8L110,67h-2.4l-1.9-3.6h-1V67h-2L102.8,58z M104.8,61.7h1.2h0.6&#10;&#9;&#9;c0.2,0,0.4,0,0.5-0.1c0.2-0.1,0.3-0.2,0.4-0.3c0.1-0.2,0.2-0.4,0.2-0.6c0-0.2,0-0.4-0.1-0.5c-0.1-0.1-0.2-0.2-0.4-0.3&#10;&#9;&#9;c-0.2-0.1-0.3-0.1-0.5-0.1c-0.2,0-0.4,0-0.6,0h-1.3L104.8,61.7z"/>
</g>
<g id="wall_note_podcaster-46">
	<rect x="289.4" y="72.6" class="st1_podcaster-46" width="31.4" height="31.4"/>
	<path class="st0_podcaster-46" d="M320.8,104.5h-31.4c-0.3,0-0.5-0.2-0.5-0.5V72.6c0-0.3,0.2-0.5,0.5-0.5h31.4c0.3,0,0.5,0.2,0.5,0.5V104&#10;&#9;&#9;C321.3,104.3,321.1,104.5,320.8,104.5z M289.9,103.5h30.4V73.1h-30.4V103.5z"/>
	<path class="st0_podcaster-46" d="M315.8,80h-21.4c-0.3,0-0.5-0.2-0.5-0.5c0-0.3,0.2-0.5,0.5-0.5h21.4c0.3,0,0.5,0.2,0.5,0.5&#10;&#9;&#9;C316.2,79.8,316,80,315.8,80z"/>
	<path class="st0_podcaster-46" d="M315.8,85.8h-21.4c-0.3,0-0.5-0.2-0.5-0.5c0-0.3,0.2-0.5,0.5-0.5h21.4c0.3,0,0.5,0.2,0.5,0.5&#10;&#9;&#9;C316.2,85.6,316,85.8,315.8,85.8z"/>
	<path class="st0_podcaster-46" d="M315.8,91.7h-21.4c-0.3,0-0.5-0.2-0.5-0.5c0-0.3,0.2-0.5,0.5-0.5h21.4c0.3,0,0.5,0.2,0.5,0.5&#10;&#9;&#9;C316.2,91.5,316,91.7,315.8,91.7z"/>
	<path class="st0_podcaster-46" d="M308.6,97.6h-14.2c-0.3,0-0.5-0.2-0.5-0.5c0-0.3,0.2-0.5,0.5-0.5h14.2c0.3,0,0.5,0.2,0.5,0.5&#10;&#9;&#9;S308.9,97.6,308.6,97.6z"/>
	<rect x="302.6" y="68.3" class="st1_podcaster-46" width="5" height="7.4"/>
	<path class="st0_podcaster-46" d="M307.5,76.2h-5c-0.3,0-0.5-0.2-0.5-0.5v-7.4c0-0.3,0.2-0.5,0.5-0.5h5c0.3,0,0.5,0.2,0.5,0.5v7.4&#10;&#9;&#9;C308,76,307.8,76.2,307.5,76.2z M303.1,75.2h4v-6.4h-4V75.2z"/>
</g>
<g id="plant_podcaster-46">
	<path class="st2_podcaster-46" d="M309.4,216.8c0.1-1.6-0.2-3.3-1-4.7c-0.8-1-1.5-2-2.1-3c-0.9-1.9-0.3-4.1-0.5-6.2c-0.2-1.8-1-3.4-2.2-4.7&#10;&#9;&#9;c-1.1-1.1-2.5-1.9-3.5-3c-1.7-1.9-2.2-4.6-3.2-6.9c-1.4-3.3-3.8-6.2-6.9-8.1c1.9,3.8-2.4,8.6-0.5,12.3c0.6,1.2,1.8,2,2.2,3.3&#10;&#9;&#9;c1.1,3-2.5,6.3-1.4,9.3c0.6,1.5,2.2,2.4,2.9,3.8c1,1.9,0.2,4.2,0.3,6.4c0.1,3,1.9,5.7,4.1,7.7c1.4,1.3,2.8,2.4,4.3,3.6&#10;&#9;&#9;c1.7,1.4,2.5,2.9,4,0.6C308.1,224.2,309.3,220.6,309.4,216.8z"/>
	<path class="st2_podcaster-46" d="M311.3,218.5c-0.6-2.3-1-4.8,0-7c1.1-2.5,3.7-4.2,4-6.9c0.2-1.7-0.7-3.5-0.3-5.2s1.8-2.9,2.9-4.2&#10;&#9;&#9;c2.7-2.9,4.3-6.7,4.5-10.7c1.8,2.1,3.3,4.5,4.3,7.1c1,2.6,0.8,5.6-0.6,8c-0.4,0.5-0.8,1.1-1.1,1.8c-0.5,1.7,0.9,3.3,1.7,4.9&#10;&#9;&#9;c0.9,1.9,0.7,4.1-0.5,5.8c-1.5,1.9-4.5,2.6-5.2,5c-0.2,0.9-0.3,1.7-0.3,2.6c-0.3,3.1-2.5,5.8-5.6,6.6c-1.8,0.4-1.8-0.3-2.1-1.8&#10;&#9;&#9;C312.6,222.6,311.8,220.6,311.3,218.5z"/>
	<path class="st2_podcaster-46" d="M305.6,201.9c-1.3-4.4-1.8-9.1-3.1-13.5c-1.1-3.5-2.6-6.8-4.2-10.1l5.5,2.3c1.8,0.7,3.7,1.6,4.5,3.4&#10;&#9;&#9;c1.5,3-1.2,6.9,0.4,9.8c0.7,1,1.4,1.9,2.2,2.7c1.6,2.3,1.4,5.4,0.5,8.1c-0.4,1.1-2,7-3.5,5.4c-0.6-0.6-0.6-3.1-0.9-4&#10;&#9;&#9;C306.5,204.7,306,203.3,305.6,201.9z"/>
	<path class="st2_podcaster-46" d="M308.6,260.9c-1.1-7.3-4.5-32.8-4.6-33.1l1-0.1c0,0.2,3.5,25.8,4.6,33.1L308.6,260.9z"/>
	<path class="st2_podcaster-46" d="M309.9,267.8h-1c0.1-8.6,3.7-41.6,5.7-43.8l0.7,0.7C313.8,226.3,310,258.2,309.9,267.8z"/>
	<path class="st2_podcaster-46" d="M311.8,266.1h-1c0.8-18.6-3.1-57.6-3.2-58l1-0.1C308.6,208.4,312.6,247.5,311.8,266.1z"/>
	<path class="st1_podcaster-46" d="M299.2,243.4h20.5l-1.4,20.7c-0.2,3.6-3.2,6.4-6.8,6.4h-4c-3.6,0-6.6-2.8-6.8-6.4L299.2,243.4z"/>
	<path class="st2_podcaster-46" d="M311.4,271.1h-4c-3.9,0-7.1-3-7.3-6.9l-1.4-20.8c0-0.3,0.2-0.5,0.5-0.5c0,0,0,0,0.1,0h20.5&#10;&#9;&#9;c0.1,0,0.3,0.1,0.4,0.2c0.1,0.1,0.1,0.2,0.1,0.4l-1.4,20.8C318.4,268.1,315.2,271,311.4,271.1z M299.7,243.9l1.4,20.2&#10;&#9;&#9;c0.2,3.3,3,5.9,6.3,5.9h4c3.3,0,6.1-2.6,6.3-5.9l1.4-20.2L299.7,243.9z"/>
</g>
</svg>