<svg id="_0032_podcast" xmlns="http://www.w3.org/2000/svg" viewBox="0 0 500 500" data-imageid="podcaster-71" imageName="Podcaster" class="illustrations_image" style="width: 144px;"><defs><style>.cls-1_podcaster-71,.cls-2_podcaster-71,.cls-3_podcaster-71{fill:#fff;}.cls-4_podcaster-71{fill:#f4a28c;}.cls-5_podcaster-71{fill:#a5a5a5;}.cls-6_podcaster-71{opacity:.24;}.cls-6_podcaster-71,.cls-7_podcaster-71{fill:#000001;}.cls-8_podcaster-71{fill:#e6e6e6;}.cls-9_podcaster-71{fill:#ce8172;opacity:.31;}.cls-2_podcaster-71{opacity:.2;}.cls-3_podcaster-71{opacity:.46;}.cls-10_podcaster-71{fill:#24285b;}.cls-7_podcaster-71{opacity:.08;}.cls-11_podcaster-71{fill:#ffd200;}.cls-12_podcaster-71{fill:#68e1fd;}</style></defs><g id="chats_podcaster-71"><circle class="cls-10_podcaster-71" cx="217.92" cy="93.4" r="49.18"/><path class="cls-6_podcaster-71" d="m220.93,142.49s-10.64-56.97,39.69-73.5c0,0,3.43,5.82,4.84,11.77l-30.35,58.73s-7.96,3.01-14.19,3Z"/><circle class="cls-10_podcaster-71" cx="282.65" cy="126.86" r="49.18"/><polygon class="cls-10_podcaster-71" points="174.23 115.96 140.37 140.38 187.39 131.94 174.23 115.96"/><polygon class="cls-10_podcaster-71" points="325.89 136.66 359.74 161.08 312.72 152.64 325.89 136.66"/><circle class="cls-11_podcaster-71" cx="260.62" cy="127.26" r="7.53"/><circle class="cls-11_podcaster-71" cx="284.43" cy="127.26" r="7.53"/><circle class="cls-11_podcaster-71" cx="307.41" cy="127.26" r="7.53"/><circle class="cls-12_podcaster-71 targetColor" cx="194.53" cy="94.47" r="7.53" style="fill: rgb(185, 255, 102);"/><circle class="cls-12_podcaster-71 targetColor" cx="218.34" cy="94.47" r="7.53" style="fill: rgb(185, 255, 102);"/><circle class="cls-12_podcaster-71 targetColor" cx="241.32" cy="94.47" r="7.53" style="fill: rgb(185, 255, 102);"/></g><g id="caster1_podcaster-71"><path class="cls-12_podcaster-71 targetColor" d="m133.63,221.45s29.55,10.59,36.38,51.58c6.83,40.99-.07,59.32,41.32,58.4l29.9-1.84v13.21l-92.91.16-14.69-121.51Z" style="fill: rgb(185, 255, 102);"/><path class="cls-7_podcaster-71" d="m133.63,221.45s29.55,10.59,36.38,51.58c6.83,40.99-.07,59.32,41.32,58.4l29.9-1.84v13.21l-92.91.16-14.69-121.51Z"/><path class="cls-4_podcaster-71" d="m112.11,169.09s4.41,9.34,5.16,16.36c.3,2.85-1.79,5.44-4.64,5.7-3.54.33-8.42-.26-11.39-4.98l-6.03-7.39s-3.61-4.76.39-10.71,14.11-4.81,16.51,1.01Z"/><polygon class="cls-4_podcaster-71" points="97.48 180.48 95.05 214.24 113.75 214.25 108.15 190.3 97.48 180.48"/><path class="cls-10_podcaster-71" d="m109.86,170.38c-1.66.71-4.77,1.85-9.18,2.62,0,0,4.59,3.1,3.28,8.86-1.31,5.77-6.97,5.56-6.97,5.56l-4.44-12.5c-1.41-3.6-.76-7.7,1.75-10.65,1.02-1.21,2.18-2.46,3.41-3.57,3.05-2.76,9.18-2.31,11.5-5.92,1.02-1.58,3.37-1.49,4.27.16,1.96,3.58,3.49,9.79-.87,13.75-.8.73-1.74,1.26-2.73,1.68Z"/><path class="cls-4_podcaster-71" d="m104.88,181.19s-1.45-3.7-4.15-2.38-.63,6.69,3.36,5.78l.78-3.4Z"/><path class="cls-4_podcaster-71" d="m114.59,175.12l4.08,2.73c1.01.68.97,2.17-.07,2.79l-3.45,2.07-.56-7.59Z"/><path class="cls-9_podcaster-71" d="m108.31,190.98s-3.95-.67-6.09-2.92c0,0-1.21,7.31,7.7,9.78l-1.6-6.86Z"/><rect class="cls-11_podcaster-71" x="192.54" y="288.04" width="9.28" height="49.48"/><rect class="cls-3_podcaster-71" x="192.71" y="288.04" width="9.28" height="49.48"/><polygon class="cls-11_podcaster-71" points="192.54 329.59 177.63 342.81 217.07 342.81 201.82 329.59 192.54 329.59"/><polygon class="cls-7_podcaster-71" points="192.38 329.59 177.46 342.81 216.9 342.81 201.66 329.59 192.38 329.59"/><path class="cls-12_podcaster-71 targetColor" d="m94.8,212.88h17.16s26.11,0,42.21,35.39c11.53,25.36.69,94.53.69,94.53H61.72s-48.36-117.25,33.08-129.92Z" style="fill: rgb(185, 255, 102);"/><rect class="cls-11_podcaster-71" x="183.04" y="245.54" width="28.61" height="53.05"/><path class="cls-7_podcaster-71" d="m88.58,239.9s19.01,15.7,7.63,39.57c-11.38,23.88-22.93,44.26,8.67,41.13l39.63-15.87s7.59-4.14,7.93,2.41,3.45,17.25-15.87,22.42c-19.32,5.17-17.95,13.39-17.95,13.39l-56.9-.16-16.21-39.8,43.08-63.11Z"/><path class="cls-12_podcaster-71 targetColor" d="m90.03,244.37c-2.89-15.17-22.2-20.21-32.76-8.95-9.49,10.12-20.94,26.36-25.91,49.2-9.2,42.32,5.06,55.67,22.08,58.19,17.02,2.52,84.63-26,84.63-26l-4.44-12.63s-51.45,19.75-68.47,5.04c-13.4-11.59,29.94-38.26,24.87-64.86Z" style="fill: rgb(185, 255, 102);"/><path class="cls-2_podcaster-71" d="m90.03,244.37c-2.89-15.17-22.2-20.21-32.76-8.95-9.49,10.12-20.94,26.36-25.91,49.2-9.2,42.32,5.06,55.67,22.08,58.19,17.02,2.52,84.63-26,84.63-26l-4.44-12.63s-51.45,19.75-68.47,5.04c-13.4-11.59,29.94-38.26,24.87-64.86Z"/><path class="cls-4_podcaster-71" d="m133.63,304.19s4.9-6.69,12.49-6.23,4.83,5.11,1.15,6.23c0,0,8.51,8.72-9.2,12.63l-4.44-12.63Z"/><path class="cls-4_podcaster-71" d="m241.24,334.2s19.78-6.24,17.71,8.61h-17.71v-8.61Z"/><rect class="cls-7_podcaster-71" x="183.04" y="245.54" width="28.61" height="35.07"/><polygon class="cls-7_podcaster-71" points="203.7 331.3 241.24 329.59 241.24 342.81 217.07 342.81 203.7 331.3"/><path class="cls-12_podcaster-71 targetColor" d="m93.13,178.91s-6.95-12.29,4.55-18.21c0,0-5.75,8.33.43,17.82l-4.98.39Z" style="fill: rgb(185, 255, 102);"/><path class="cls-7_podcaster-71" d="m93.13,178.91s-6.95-12.29,4.55-18.21c0,0-5.75,8.33.43,17.82l-4.98.39Z"/><circle class="cls-12_podcaster-71 targetColor" cx="98.11" cy="183.95" r="7.39" style="fill: rgb(185, 255, 102);"/></g><g id="caster2_podcaster-71"><path class="cls-4_podcaster-71" d="m386.28,229.75s-19.6,1.74-19.6,18.4c0,11.87,1.74,40.36-3.13,59.04-2.5,9.57-12.91,14.69-22.02,10.82l-45.9-19.48s-14.2-6.47-19.33-2.74,6.99,7.64,6.99,7.64c0,0-4.19,14.65,7.87,13.28s52.88,45.91,85.86,24.83c32.98-21.09,34.21-87.3,9.27-111.79Z"/><path class="cls-7_podcaster-71" d="m386.28,229.75s-19.6,1.74-19.6,18.4c0,11.87,1.74,40.36-3.13,59.04-2.5,9.57-12.91,14.69-22.02,10.82l-45.9-19.48s-14.2-6.47-19.33-2.74,6.99,7.64,6.99,7.64c0,0-4.19,14.65,7.87,13.28s52.88,45.91,85.86,24.83c32.98-21.09,34.21-87.3,9.27-111.79Z"/><path class="cls-4_podcaster-71" d="m395.82,171.45s-4.05,8.57-4.73,15.01c-.28,2.61,1.65,4.99,4.26,5.23,3.25.3,7.73-.24,10.45-4.57l5.53-6.78s3.32-4.37-.36-9.83-12.95-4.42-15.15.93Z"/><polygon class="cls-4_podcaster-71" points="409.25 181.91 411.47 212.88 394.31 212.89 399.45 190.91 409.25 181.91"/><path class="cls-4_podcaster-71" d="m393.55,176.98l-3.74,2.51c-.92.62-.89,1.99.06,2.56l3.16,1.9.52-6.97Z"/><path class="cls-9_podcaster-71" d="m399.31,191.54s3.63-.62,5.59-2.68c0,0,1.11,6.71-7.06,8.97l1.47-6.29Z"/><rect class="cls-11_podcaster-71" x="316.5" y="288.04" width="9.28" height="49.48"/><rect class="cls-3_podcaster-71" x="316.66" y="288.04" width="9.28" height="49.48"/><polygon class="cls-11_podcaster-71" points="316.5 329.59 301.58 342.81 341.02 342.81 325.78 329.59 316.5 329.59"/><polygon class="cls-7_podcaster-71" points="316.33 329.59 301.42 342.81 340.86 342.81 325.61 329.59 316.33 329.59"/><rect class="cls-11_podcaster-71" x="307" y="245.54" width="28.61" height="53.05"/><path class="cls-12_podcaster-71 targetColor" d="m394.31,212.89s-34.22,20.78-34.56,38.72c-.19,9.8,3.43,17.2,6.75,21.91,3.68,5.21,6.17,11.14,7.2,17.43l.89,51.86,75.02,1.6s48.82-102.11-19.49-133.16l-35.81,1.64Z" style="fill: rgb(185, 255, 102);"/><path class="cls-7_podcaster-71" d="m440.8,233.08s-29.32,3.9-22.75,50.63c3.15,22.37,6.68,34.14-28.91,23.44l-15.31-8.88.76,44.54,75.02,1.6,11.03-32.29-19.84-79.03Z"/><path class="cls-1_podcaster-71" d="m394.31,212.89s.64,14.23,10.63,12.51,14.83-4.39,16.55-13.75l-27.19,1.24Z"/><path class="cls-10_podcaster-71" d="m392.17,172.32l13.01,5.49s-1.98,14.15,4.01,29.1c3.89,9.71,16.05,12.98,24.46,6.76h0c4.15-3.07,3.77-9.34-.67-11.97-6.5-3.85-13.25-10.7-12.01-22.37,2.31-21.65-23-29.44-28.8-7.02Z"/><path class="cls-4_podcaster-71" d="m432.72,246.98c-.68-16.18,21.6-21.82,28.52-7.17,2.79,5.92,5.03,13.09,6.04,21.68,4.03,34.37,10.55,72.43-18.03,83.83s-78.22-48.75-78.22-48.75l9.55-9.13s37.66,29.64,53.22,27.26c10.74-1.64.16-38.29-1.08-67.72Z"/><path class="cls-4_podcaster-71" d="m404.27,179.73s1.33-3.4,3.81-2.18.58,6.14-3.09,5.3l-.72-3.12Z"/><path class="cls-4_podcaster-71" d="m381.36,285.94s-2.78-7.73-10.1-12.65c-13.52-9.09-7.58,3.02-4.25,6,0,0-13.21,5.02,3.53,17.78l10.83-11.13Z"/><rect class="cls-10_podcaster-71" x="368.05" y="290.24" width="19.93" height="8.05" transform="translate(-94.85 370.96) rotate(-47.11)"/><rect class="cls-7_podcaster-71" x="307" y="245.54" width="28.61" height="35.07"/><path class="cls-12_podcaster-71 targetColor" d="m414.18,176.76s6.95-12.29-4.55-18.21c0,0,5.75,8.33-.43,17.82l4.98.39Z" style="fill: rgb(185, 255, 102);"/><path class="cls-7_podcaster-71" d="m414.18,176.76s6.95-12.29-4.55-18.21c0,0,5.75,8.33-.43,17.82l4.98.39Z"/><circle class="cls-12_podcaster-71 targetColor" cx="409.2" cy="181.79" r="7.39" style="fill: rgb(185, 255, 102);"/><circle class="cls-11_podcaster-71" cx="377.49" cy="294.25" r="5.45"/></g><g id="table_podcaster-71"><rect class="cls-5_podcaster-71" x="21.86" y="342.81" width="456.28" height="17"/><rect class="cls-8_podcaster-71" x="21.86" y="359.81" width="456.28" height="91.55"/></g></svg>